# File created by Blade
# Date/Time:  Wed Jan 21 14:43:55 2015
# Frame Rate: 120.000 fps
#------------------------------------------------------
:FULLY-SPECIFIED
:DEGREES
399
root 23.439229 35.249857 -20.949130 -174.781918 8.219102 190.591809
Spine -10.585459 9.517422 -48.283631
Head 1.015717 -20.333339 -26.876694
LeftShoulder -8.095251 -9.376525 9.362979
LeftArm -44.952804 75.886690 -82.056705
LeftForeArm 33.368950 -0.000000 127.568768
LeftHand -4.378264 -0.000000 13.752171
LeftHandThumb1 -26.253704 0.000000 33.147579
RightShoulder -9.365386 -28.418747 -8.740077
RightArm 34.666093 -63.177871 41.858390
RightForeArm -45.169351 -0.000000 77.063415
RightHand 8.486496 0.000000 -30.480256
RightHandThumb1 -24.326973 -0.000000 -32.862282
LeftUpLeg 7.435319 19.892255 19.770725
LeftLeg -6.994882 -0.000000 0.000000
LeftFoot -20.275368 29.312177 -13.488393
LeftToeBase 29.918951 -0.000000 -0.000000
RightUpLeg 1.960342 -2.903948 12.952296
RightLeg -0.845076 -0.000000 0.000000
RightFoot -19.140825 -14.603353 17.466607
RightToeBase 25.709473 -0.000000 -0.000000
400
root 23.437021 35.249790 -20.950876 -174.759780 8.147636 190.590367
Spine -10.556534 9.550691 -48.294946
Head 1.095868 -20.290153 -26.847841
LeftShoulder -8.113715 -9.343769 9.339810
LeftArm -44.741801 75.925913 -81.833706
LeftForeArm 33.381222 0.000000 127.583522
LeftHand -4.439992 -0.000000 13.778014
LeftHandThumb1 -26.253704 0.000000 33.147579
RightShoulder -9.346587 -28.429797 -8.755149
RightArm 34.694432 -63.172242 41.845602
RightForeArm -45.289839 0.000000 77.032938
RightHand 8.606820 -0.000000 -30.678923
RightHandThumb1 -24.326973 -0.000000 -32.862282
LeftUpLeg 7.389431 19.895032 19.757951
LeftLeg -7.014463 -0.000000 0.000000
LeftFoot -20.271010 29.258432 -13.488637
LeftToeBase 29.885970 -0.000000 -0.000000
RightUpLeg 1.942392 -2.888556 12.957937
RightLeg -0.860897 -0.000000 0.000000
RightFoot -19.163044 -14.678851 17.473110
RightToeBase 25.493107 -0.000000 -0.000000
401
root 23.433545 35.250314 -20.951880 -174.733951 8.068259 190.587377
Spine -10.520632 9.583797 -48.314190
Head 1.174463 -20.294081 -26.832751
LeftShoulder -8.137086 -9.352571 9.316349
LeftArm -44.648578 75.975878 -81.721719
LeftForeArm 33.387957 -0.000000 127.590648
LeftHand -4.450559 -0.000000 13.864517
LeftHandThumb1 -26.253704 0.000000 33.147579
RightShoulder -9.348440 -28.475039 -8.743507
RightArm 34.829462 -63.178915 41.706417
RightForeArm -45.214279 -0.000000 77.042023
RightHand 8.262500 0.000000 -30.671953
RightHandThumb1 -24.326973 -0.000000 -32.862282
LeftUpLeg 7.335826 19.845645 19.736266
LeftLeg -7.027691 -0.000000 0.000000
LeftFoot -20.280314 29.289685 -13.474821
LeftToeBase 30.017817 -0.000000 -0.000000
RightUpLeg 1.912224 -2.911121 12.961176
RightLeg -0.869836 -0.000000 0.000000
RightFoot -19.169597 -14.729511 17.484834
RightToeBase 25.721745 -0.000000 -0.000000
402
root 23.432278 35.250219 -20.953179 -174.723644 8.007898 190.586562
Spine -10.473748 9.627421 -48.334383
Head 1.221099 -20.251786 -26.793049
LeftShoulder -8.174637 -9.393613 9.301807
LeftArm -44.609064 76.010992 -81.658676
LeftForeArm 33.387382 -0.000000 127.607365
LeftHand -4.415834 -0.000000 13.950835
LeftHandThumb1 -26.253704 0.000000 33.147579
RightShoulder -9.332224 -28.460710 -8.764751
RightArm 34.847194 -63.202225 41.703266
RightForeArm -45.265235 0.000000 77.009893
RightHand 8.385164 0.000000 -30.558321
RightHandThumb1 -24.326973 -0.000000 -32.862282
LeftUpLeg 7.309183 19.845086 19.731294
LeftLeg -7.055028 -0.000000 0.000000
LeftFoot -20.233018 29.206781 -13.468760
LeftToeBase 29.940671 -0.000000 -0.000000
RightUpLeg 1.902697 -2.906515 12.968179
RightLeg -0.877635 -0.000000 0.000000
RightFoot -19.185108 -14.788431 17.482524
RightToeBase 25.423540 -0.000000 -0.000000
403
root 23.431468 35.250691 -20.954819 -174.712421 7.953616 190.594354
Spine -10.434972 9.690422 -48.364275
Head 1.289145 -20.230688 -26.748089
LeftShoulder -8.204086 -9.390581 9.283591
LeftArm -44.375236 76.031502 -81.413300
LeftForeArm 33.388638 -0.000000 127.612850
LeftHand -4.387453 -0.000000 13.950008
LeftHandThumb1 -26.253704 0.000000 33.147579
RightShoulder -9.358462 -28.440525 -8.734540
RightArm 34.911216 -63.243757 41.608821
RightForeArm -45.356524 -0.000000 77.010454
RightHand 8.258990 0.000000 -30.686508
RightHandThumb1 -24.326973 -0.000000 -32.862282
LeftUpLeg 7.286460 19.823190 19.735600
LeftLeg -7.069783 -0.000000 0.000000
LeftFoot -20.227639 29.210050 -13.439422
LeftToeBase 29.961454 -0.000000 -0.000000
RightUpLeg 1.894339 -2.913635 12.980003
RightLeg -0.886605 -0.000000 0.000000
RightFoot -19.187316 -14.826111 17.508004
RightToeBase 25.345220 -0.000000 -0.000000
404
root 23.430224 35.250943 -20.956329 -174.696719 7.901858 190.597807
Spine -10.398408 9.752904 -48.399079
Head 1.356717 -20.228318 -26.731873
LeftShoulder -8.264326 -9.362909 9.244390
LeftArm -43.908937 76.083804 -80.927770
LeftForeArm 33.391499 -0.000000 127.631203
LeftHand -4.394928 -0.000000 13.966942
LeftHandThumb1 -26.253704 0.000000 33.147579
RightShoulder -9.380130 -28.439781 -8.729584
RightArm 34.991727 -63.256556 41.537920
RightForeArm -45.420850 -0.000000 76.996698
RightHand 8.180839 -0.000000 -30.717280
RightHandThumb1 -24.326973 -0.000000 -32.862282
LeftUpLeg 7.260157 19.787463 19.731481
LeftLeg -7.089464 -0.000000 0.000000
LeftFoot -20.210775 29.202845 -13.429235
LeftToeBase 29.954025 -0.000000 -0.000000
RightUpLeg 1.885299 -2.912473 12.989064
RightLeg -0.904685 -0.000000 0.000000
RightFoot -19.191105 -14.862223 17.534729
RightToeBase 25.332794 -0.000000 -0.000000
